<mxfile host="app.diagrams.net" modified="2024-05-23T00:46:49.820Z" agent="Mozilla/5.0 (Windows NT 10.0; Win64; x64) AppleWebKit/537.36 (KHTML, like Gecko) Chrome/123.0.0.0 Safari/537.36 OPR/109.0.0.0" version="24.4.6" etag="zGCSa-T8vyl6Rb9QokeK" type="github">
  <diagram name="Page-1" id="rrr_UWaOozMbf5BHGQdb">
    <mxGraphModel>
      <root>
        <mxCell id="0" />
        <mxCell id="1" parent="0" />
      </root>
    </mxGraphModel>
  </diagram>
</mxfile>
